<?xml version="1.0" encoding="UTF-8" standalone="no"?>
<svg
   xmlns:dc="http://purl.org/dc/elements/1.1/"
   xmlns:cc="http://creativecommons.org/ns#"
   xmlns:rdf="http://www.w3.org/1999/02/22-rdf-syntax-ns#"
   xmlns:svg="http://www.w3.org/2000/svg"
   xmlns="http://www.w3.org/2000/svg"
   xmlns:sodipodi="http://sodipodi.sourceforge.net/DTD/sodipodi-0.dtd"
   xmlns:inkscape="http://www.inkscape.org/namespaces/inkscape"
   version="1.1"
   viewBox="0 0 292.57571 271.61563"
   id="svg178"
   sodipodi:docname="pl.svg"
   width="292.57571"
   height="271.61563"
   inkscape:version="0.92.1 r15371">
  <metadata
     id="metadata184">
    <rdf:RDF>
      <cc:Work
         rdf:about="">
        <dc:format>image/svg+xml</dc:format>
        <dc:type
           rdf:resource="http://purl.org/dc/dcmitype/StillImage" />
        <dc:title></dc:title>
      </cc:Work>
    </rdf:RDF>
  </metadata>
  <defs
     id="defs182" />
  <sodipodi:namedview
     pagecolor="#ffffff"
     bordercolor="#666666"
     borderopacity="1"
     objecttolerance="10"
     gridtolerance="10"
     guidetolerance="10"
     inkscape:pageopacity="0"
     inkscape:pageshadow="2"
     inkscape:window-width="1366"
     inkscape:window-height="671"
     id="namedview180"
     showgrid="false"
     fit-margin-top="0"
     fit-margin-left="0"
     fit-margin-right="0"
     fit-margin-bottom="0"
     inkscape:zoom="1.2688172"
     inkscape:cx="97"
     inkscape:cy="178.61564"
     inkscape:window-x="0"
     inkscape:window-y="27"
     inkscape:window-maximized="1"
     inkscape:current-layer="svg178" />
  <g
     transform="translate(1.9009567,1.3375807)"
     id="layer1">
    <g
       id="layer1-3"
       transform="matrix(0.26458333,0,0,0.26458333,61.455597,-17.292436)">
      <path
         id="path3032"
         d="m 250.61914,977.76568 c 22.76264,1.98825 45.51215,43.03222 30.17144,38.65712 12.6162,38.1391 40.37547,-12.4561 57.12683,-23.13416 18.14284,10.94906 18.965,44.03606 42.91043,37.68596 -1.68307,30.1121 -7.42197,37.9261 23.94846,31.1768 24.46,23.2695 2.37976,-35.476 36.3,-24.5143 0.55612,-18.7116 60.63205,-13.9716 49.4995,-9.2435 4.30825,40.3088 33.02647,-3.3163 45.82102,-8.0549 5.56523,-13.2163 52.8577,-0.9499 75.93255,5.3966 24.69591,6.1333 32.73125,48.3349 67.76121,40.1876 15.93266,6.2837 67.66389,35.6336 59.42851,8.2396 -19.321,-14.9557 -22.95754,-18.1332 -17.94279,-46.8968 -31.16134,-41.46436 19.08169,-68.10265 38.72507,-106.01955 20.37932,-39.02495 50.89194,-84.31649 94.68921,-92.92332 33.70676,-32.41101 -30.48679,-68.6796 6.12856,-75.9 -12.9223,-18.42086 -34.00577,-51.64916 -51.85712,-76.37144 1.57314,-25.53718 -37.26901,-62.66251 -13.2,-93.34287 3.31482,-28.1456 -3.26416,-66.57159 -40.07144,-67.88569 -34.1059,-18.49637 26.70776,-73.02781 54.25497,-78.57679 18.54194,-29.42053 3.30769,-75.22706 -7.85096,-103.18184 -20.0541,-37.43308 -32.02446,-81.19169 -41.64468,-119.67675 10.61151,-39.96482 -28.04393,-61.23426 -53.66939,-69.67022 -16.80419,-28.52515 -56.30598,11.61604 -89.99776,2.47213 -81.76787,12.27012 -163.48286,-2.97058 -245.11239,-9.26554 -34.18407,-12.08522 -71.14965,30.67749 -106.91241,9.29354 -33.11358,-8.89191 -22.4855,-38.36129 -34.33508,-60.669764 -15.09261,-33.751459 71.2103,51.843124 31.61872,1.204401 C 217.46265,40.463211 150.36927,69.379639 98.081065,82.938913 60.841423,109.68677 14.968354,111.65867 -9.9560843,155.55117 c -47.3834787,13.14982 -97.0541857,21.1825 -144.8406957,37.16856 -23.33539,24.11357 -83.11769,0.9026 -57.1696,47.83578 -6.29211,46.03553 27.66364,97.89506 -9.16713,132.17341 -50.85874,26.53966 27.43613,53.90019 31.16827,83.83759 -3.94958,18.27596 -18.9164,45.22541 7.83373,57.1696 -0.17212,26.52448 3.96264,54.9747 -16.49811,74.32771 22.57978,23.17501 -0.83837,56.39232 37.2202,66.77333 9.62666,49.04446 -21.13617,100.16764 -18.63411,102.87063 33.52787,9.18364 1.76517,-40.33563 35.88275,-22.31895 20.62077,1.68626 8.69969,53.18963 50.165648,44.37688 26.544963,4.76134 41.015113,32.81226 48.557151,29.46428 18.494929,-23.15689 60.620472,7.68421 27.107124,24.75 -26.642616,15.32055 34.390059,36.09692 33.942876,63.87856 10.873694,19.60949 15.387243,-30.51081 39.331136,-21.23692 -14.761442,-25.34769 -11.614288,-45.52937 20.068864,-24.0202 19.673742,20.54623 46.178151,27.99241 69.300001,16.5 8.27943,23.72733 -34.23466,22.75594 -0.23572,40.30712 17.42674,42.92505 31.90938,-9.49647 39.55443,12.05546 13.75519,14.63016 61.42491,35.62123 53.78841,24.48026 4.95023,7.3985 -2.85275,26.93378 13.2,31.82141 z"
         style="fill:none;fill-rule:evenodd;stroke:#000000;stroke-width:2.40900016;stroke-linecap:round;stroke-linejoin:round;stroke-miterlimit:4;stroke-dasharray:none;stroke-opacity:1"
         inkscape:connector-curvature="0" />
    </g>
    <path
       id="path4959"
       d=""
       style="fill:#0000ff;stroke-width:1.62892199"
       inkscape:connector-curvature="0" />
    <path
       id="path4961"
       d=""
       style="fill:#0000ff;stroke-width:1.62892199"
       inkscape:connector-curvature="0" />
    <path
       id="path4963"
       d=""
       style="fill:#0000ff;stroke-width:1.62892199"
       inkscape:connector-curvature="0" />
    <path
       id="path4965"
       d=""
       style="fill:#0000ff;stroke-width:1.62892199"
       inkscape:connector-curvature="0" />
    <path
       id="path4967"
       d=""
       style="opacity:0.18240015;fill:#000080;stroke-width:1.62892199"
       inkscape:connector-curvature="0" />
  </g>
</svg>
